<svg width="103" height="30" viewBox="0 0 103 30" fill="none" xmlns="http://www.w3.org/2000/svg">
<g clip-path="url(#clip0_1206_36406)">
<g clip-path="url(#clip1_1206_36406)">
<path d="M98.0923 0H4.34369C2.27266 0 0.59375 1.67891 0.59375 3.74994V26.2496C0.59375 28.3207 2.27266 29.9996 4.34369 29.9996H98.0923C100.163 29.9996 101.842 28.3207 101.842 26.2496V3.74994C101.842 1.67891 100.163 0 98.0923 0Z" fill="black"/>
<path d="M98.0923 0.599991C98.9276 0.599991 99.7292 0.931861 100.32 1.52259C100.91 2.11332 101.242 2.91453 101.242 3.74994V26.2496C101.242 27.0851 100.91 27.8862 100.32 28.477C99.7292 29.0677 98.9276 29.3996 98.0923 29.3996H4.34369C3.50828 29.3996 2.70707 29.0677 2.11634 28.477C1.52561 27.8862 1.19374 27.0851 1.19374 26.2496V3.74994C1.19374 2.91453 1.52561 2.11332 2.11634 1.52259C2.70707 0.931861 3.50828 0.599991 4.34369 0.599991H98.0923ZM98.0923 0H4.34369C3.34915 0 2.39534 0.395082 1.69209 1.09834C0.988832 1.80159 0.59375 2.7554 0.59375 3.74994V26.2496C0.59375 27.2441 0.988832 28.198 1.69209 28.9012C2.39534 29.6045 3.34915 29.9996 4.34369 29.9996H98.0923C99.087 29.9996 100.041 29.6045 100.744 28.9012C101.447 28.198 101.842 27.2441 101.842 26.2496V3.74994C101.842 2.7554 101.447 1.80159 100.744 1.09834C100.041 0.395082 99.087 0 98.0923 0Z" fill="#A6A6A6"/>
<path d="M24.6793 14.4848C24.6586 12.1817 26.5651 11.0612 26.6523 11.0091C25.5725 9.4348 23.899 9.21974 23.3108 9.20258C21.9052 9.05465 20.5418 10.0436 19.8258 10.0436C19.0954 10.0436 17.9929 9.21688 16.8044 9.24116C15.2752 9.26474 13.8446 10.1501 13.06 11.525C11.4407 14.3283 12.6484 18.448 14.1998 20.714C14.9758 21.8237 15.8826 23.0628 17.0696 23.0193C18.2308 22.9713 18.6646 22.2789 20.0659 22.2789C21.4543 22.2789 21.8616 23.0193 23.0722 22.9914C24.3184 22.9713 25.103 21.8766 25.8519 20.7568C26.7487 19.4849 27.1089 18.2322 27.1232 18.1679C27.0939 18.1579 24.7029 17.2453 24.6793 14.4848Z" fill="white"/>
<path d="M22.393 7.712C23.0176 6.93098 23.4449 5.86838 23.3262 4.79004C22.4223 4.83007 21.2918 5.4153 20.6408 6.17921C20.0649 6.85237 19.5503 7.9557 19.6833 8.99331C20.6987 9.06901 21.7413 8.48092 22.393 7.712Z" fill="white"/>
<path d="M41.4836 22.8594H39.8607L38.9718 20.0661H35.8819L35.035 22.8594H33.4551L36.5164 13.3496H38.4072L41.4836 22.8594ZM38.7038 18.8941L37.8998 16.4109C37.8148 16.1572 37.6555 15.5598 37.4204 14.6194H37.3918C37.2982 15.0239 37.1474 15.6213 36.9401 16.4109L36.1505 18.8941H38.7038Z" fill="white"/>
<path d="M49.3557 19.3464C49.3557 20.5126 49.0403 21.4344 48.4103 22.1112C47.8455 22.7136 47.1446 23.0144 46.3078 23.0144C45.4045 23.0144 44.7557 22.69 44.3605 22.0411H44.3319V25.6534H42.8084V18.2595C42.8084 17.5263 42.7891 16.7738 42.752 16.0021H44.0918L44.1769 17.089H44.2054C44.7135 16.2701 45.4846 15.8613 46.5193 15.8613C47.3282 15.8613 48.0034 16.1807 48.5439 16.8203C49.0853 17.4606 49.3557 18.3024 49.3557 19.3464ZM47.8033 19.4021C47.8033 18.7347 47.6533 18.1845 47.3518 17.7514C47.0224 17.2998 46.58 17.074 46.0255 17.074C45.6496 17.074 45.3081 17.1997 45.003 17.4477C44.6971 17.6978 44.497 18.0244 44.4034 18.4289C44.3562 18.6175 44.3326 18.7718 44.3326 18.8933V20.0367C44.3326 20.5355 44.4856 20.9564 44.7914 21.3001C45.0973 21.6438 45.4946 21.8153 45.9834 21.8153C46.5572 21.8153 47.0038 21.5938 47.3232 21.1522C47.6434 20.7098 47.8033 20.1267 47.8033 19.4021Z" fill="white"/>
<path d="M57.2438 19.3464C57.2438 20.5126 56.9283 21.4344 56.2974 22.1112C55.7335 22.7136 55.0327 23.0144 54.196 23.0144C53.2928 23.0144 52.644 22.69 52.2494 22.0411H52.2208V25.6534H50.6973V18.2595C50.6973 17.5263 50.6781 16.7738 50.6406 16.0021H51.9808L52.0656 17.089H52.0942C52.6018 16.2701 53.3725 15.8613 54.4079 15.8613C55.2165 15.8613 55.8915 16.1807 56.4334 16.8203C56.9729 17.4606 57.2438 18.3024 57.2438 19.3464ZM55.6913 19.4021C55.6913 18.7347 55.5409 18.1845 55.239 17.7514C54.9099 17.2998 54.4688 17.074 53.9139 17.074C53.537 17.074 53.1962 17.1997 52.8901 17.4477C52.5845 17.6978 52.3853 18.0244 52.2915 18.4289C52.2451 18.6175 52.2208 18.7718 52.2208 18.8933V20.0367C52.2208 20.5355 52.3736 20.9564 52.6783 21.3001C52.9839 21.6431 53.3814 21.8153 53.8717 21.8153C54.4454 21.8153 54.8921 21.5938 55.2113 21.1522C55.5315 20.7098 55.6913 20.1267 55.6913 19.4021Z" fill="white"/>
<path d="M66.0617 20.1923C66.0617 21.0012 65.7809 21.6593 65.217 22.1674C64.5974 22.7226 63.7349 22.9999 62.6268 22.9999C61.6035 22.9999 60.7832 22.8026 60.1621 22.4075L60.5151 21.1377C61.184 21.5421 61.918 21.7451 62.7172 21.7451C63.2914 21.7451 63.7377 21.615 64.0588 21.3563C64.378 21.0976 64.5374 20.7503 64.5374 20.3173C64.5374 19.9314 64.4061 19.6063 64.1422 19.3426C63.8802 19.0789 63.4419 18.8338 62.8302 18.6073C61.1652 17.9863 60.3337 17.0766 60.3337 15.8804C60.3337 15.0986 60.6252 14.4576 61.2088 13.9588C61.7905 13.4593 62.5668 13.21 63.5371 13.21C64.4024 13.21 65.1214 13.3607 65.6951 13.6616L65.3141 14.9035C64.7783 14.612 64.1722 14.4662 63.4944 14.4662C62.9582 14.4662 62.5396 14.5984 62.2396 14.8614C61.9855 15.0965 61.8585 15.3831 61.8585 15.7225C61.8585 16.0984 62.0033 16.4092 62.2949 16.6536C62.5489 16.8794 63.0097 17.1238 63.6786 17.3874C64.4966 17.7169 65.098 18.102 65.4842 18.5437C65.8695 18.9839 66.0617 19.5348 66.0617 20.1923Z" fill="white"/>
<path d="M71.0979 17.1459H69.4189V20.4752C69.4189 21.322 69.7146 21.745 70.3076 21.745C70.5799 21.745 70.8059 21.7214 70.9845 21.6743L71.0267 22.8312C70.7262 22.9434 70.331 22.9999 69.8417 22.9999C69.2398 22.9999 68.7697 22.8162 68.4303 22.4496C68.0923 22.0823 67.9222 21.4663 67.9222 20.6009V17.1445H66.9219V16.0011H67.9222V14.7456L69.4189 14.2939V16.0011H71.0979V17.1459Z" fill="white"/>
<path d="M78.6751 19.3745C78.6751 20.4286 78.3737 21.2939 77.7719 21.9706C77.1409 22.6674 76.3033 23.0147 75.2594 23.0147C74.2535 23.0147 73.4524 22.681 72.8548 22.0135C72.2576 21.3461 71.959 20.5036 71.959 19.4881C71.959 18.4255 72.266 17.5552 72.8829 16.8784C73.4979 16.201 74.3285 15.8623 75.3724 15.8623C76.3788 15.8623 77.1883 16.196 77.7991 16.8641C78.3836 17.5123 78.6751 18.3491 78.6751 19.3745ZM77.0945 19.4238C77.0945 18.7914 76.9595 18.2491 76.6858 17.7967C76.3666 17.2493 75.9096 16.9763 75.318 16.9763C74.7058 16.9763 74.2404 17.25 73.9211 17.7967C73.6474 18.2498 73.5124 18.8007 73.5124 19.4524C73.5124 20.0848 73.6474 20.6272 73.9211 21.0788C74.2507 21.6262 74.7105 21.8992 75.3044 21.8992C75.8861 21.8992 76.3427 21.6205 76.6722 21.0646C76.953 20.6036 77.0945 20.0555 77.0945 19.4238Z" fill="white"/>
<path d="M83.6278 17.3419C83.4769 17.3141 83.3161 17.2998 83.1474 17.2998C82.6116 17.2998 82.1972 17.502 81.9057 17.9072C81.6521 18.2645 81.5246 18.7161 81.5246 19.2614V22.8593H80.0016L80.0162 18.1616C80.0162 17.3712 79.997 16.6517 79.959 16.0028H81.286L81.3418 17.3148H81.384C81.5447 16.8639 81.7983 16.5009 82.1457 16.2286C82.485 15.9835 82.8516 15.8613 83.2467 15.8613C83.3874 15.8613 83.5149 15.8713 83.6278 15.8892V17.3419Z" fill="white"/>
<path d="M90.4418 19.1065C90.4418 19.3794 90.424 19.6095 90.386 19.7975H85.8153C85.8331 20.4749 86.0539 20.993 86.4786 21.3503C86.8639 21.6697 87.3617 21.8298 87.9734 21.8298C88.6502 21.8298 89.2676 21.7219 89.8226 21.5054L90.0616 22.563C89.4124 22.8459 88.6465 22.9867 87.7625 22.9867C86.6993 22.9867 85.8645 22.6737 85.257 22.0485C84.6514 21.4232 84.3477 20.5835 84.3477 19.5302C84.3477 18.4962 84.6298 17.6352 85.1951 16.9484C85.7867 16.2152 86.5864 15.8486 87.5928 15.8486C88.5809 15.8486 89.329 16.2152 89.8371 16.9484C90.2393 17.5308 90.4418 18.2511 90.4418 19.1065ZM88.9887 18.7113C88.999 18.2597 88.8996 17.8695 88.6929 17.5401C88.4295 17.1163 88.024 16.9048 87.4789 16.9048C86.9811 16.9048 86.5756 17.1113 86.2662 17.5258C86.0126 17.8552 85.8617 18.2504 85.8153 18.7106H88.9887V18.7113Z" fill="white"/>
<path d="M38.1996 7.49949C38.1996 8.3406 37.9474 8.97373 37.4436 9.39888C36.9769 9.79122 36.3138 9.98772 35.4549 9.98772C35.029 9.98772 34.6645 9.96916 34.3594 9.93198V5.33643C34.7574 5.27212 35.1862 5.23926 35.6492 5.23926C36.4675 5.23926 37.0841 5.41719 37.5 5.77306C37.9659 6.17538 38.1996 6.75063 38.1996 7.49949ZM37.41 7.52021C37.41 6.97501 37.2656 6.55694 36.9769 6.26538C36.6882 5.97458 36.2666 5.8288 35.7114 5.8288C35.4756 5.8288 35.2748 5.8445 35.1083 5.87736V9.37104C35.2004 9.38534 35.3691 9.39176 35.6142 9.39176C36.1873 9.39176 36.6296 9.23239 36.9412 8.91369C37.2528 8.59499 37.41 8.13051 37.41 7.52021Z" fill="white"/>
<path d="M42.3872 8.23386C42.3872 8.75191 42.2393 9.17641 41.9434 9.5094C41.6333 9.85168 41.2224 10.0225 40.7093 10.0225C40.2148 10.0225 39.8211 9.8588 39.5274 9.53012C39.2344 9.20209 39.0879 8.78838 39.0879 8.28959C39.0879 7.76793 39.2387 7.33987 39.5417 7.00758C39.8446 6.67529 40.252 6.50879 40.7651 6.50879C41.2595 6.50879 41.6568 6.67243 41.9577 7.00045C42.2436 7.31915 42.3872 7.73076 42.3872 8.23386ZM41.6104 8.25814C41.6104 7.94727 41.5433 7.68074 41.4096 7.45851C41.2524 7.18983 41.0287 7.05548 40.7379 7.05548C40.437 7.05548 40.2084 7.18983 40.0512 7.45851C39.9168 7.68074 39.8503 7.95158 39.8503 8.27173C39.8503 8.58256 39.9175 8.84908 40.0512 9.07136C40.2134 9.34004 40.4392 9.47439 40.7307 9.47439C41.0166 9.47439 41.241 9.33789 41.4025 9.06419C41.5411 8.83769 41.6104 8.56896 41.6104 8.25814Z" fill="white"/>
<path d="M48.0019 6.57715L46.9477 9.94577H46.2617L45.8251 8.48296C45.7144 8.11781 45.6243 7.75482 45.5543 7.39464H45.5407C45.4757 7.7648 45.3856 8.12709 45.2699 8.48296L44.8061 9.94577H44.1123L43.1211 6.57715H43.8907L44.2716 8.17856C44.3638 8.55731 44.4395 8.91819 44.5003 9.25976H44.5138C44.5696 8.97819 44.6618 8.61946 44.7918 8.18573L45.2699 6.5779H45.8801L46.3382 8.15142C46.4489 8.53513 46.539 8.9046 46.6083 9.26047H46.629C46.6798 8.91388 46.7562 8.54442 46.8577 8.15142L47.2665 6.5779H48.0019V6.57715Z" fill="white"/>
<path d="M51.8843 9.94619H51.1352V8.01675C51.1352 7.42224 50.9097 7.12497 50.4565 7.12497C50.2343 7.12497 50.0547 7.20644 49.9155 7.37007C49.7777 7.53371 49.7074 7.72665 49.7074 7.94747V9.94544H48.9588V7.54013C48.9588 7.24431 48.9495 6.92345 48.9316 6.57616H49.5898L49.6249 7.1028H49.6455C49.7327 6.93916 49.8626 6.80411 50.0337 6.69621C50.2366 6.57044 50.4635 6.50684 50.7124 6.50684C51.0269 6.50684 51.2885 6.60832 51.4961 6.81194C51.7549 7.06136 51.8843 7.43368 51.8843 7.92816V9.94619Z" fill="white"/>
<path d="M53.9493 9.94648H53.2012V5.03223H53.9493V9.94648Z" fill="white"/>
<path d="M58.3581 8.23386C58.3581 8.75191 58.21 9.17641 57.9142 9.5094C57.6043 9.85168 57.1928 10.0225 56.68 10.0225C56.185 10.0225 55.7912 9.8588 55.4983 9.53012C55.2053 9.20209 55.0586 8.78838 55.0586 8.28959C55.0586 7.76793 55.2095 7.33987 55.5123 7.00758C55.8156 6.67529 56.2229 6.50879 56.7353 6.50879C57.2303 6.50879 57.6268 6.67243 57.9287 7.00045C58.2146 7.31915 58.3581 7.73076 58.3581 8.23386ZM57.5804 8.25814C57.5804 7.94727 57.5134 7.68074 57.3798 7.45851C57.2232 7.18983 56.9987 7.05548 56.7086 7.05548C56.4072 7.05548 56.1784 7.18983 56.0219 7.45851C55.8878 7.68074 55.8212 7.95158 55.8212 8.27173C55.8212 8.58256 55.8883 8.84908 56.0219 9.07136C56.184 9.34004 56.41 9.47439 56.7015 9.47439C56.9875 9.47439 57.2111 9.33789 57.3728 9.06419C57.512 8.83769 57.5804 8.56896 57.5804 8.25814Z" fill="white"/>
<path d="M61.9824 9.94599H61.3097L61.2544 9.55796H61.2333C61.0032 9.86738 60.6755 10.0225 60.2494 10.0225C59.9316 10.0225 59.6743 9.9203 59.4807 9.71734C59.3049 9.53298 59.2168 9.30358 59.2168 9.03133C59.2168 8.61973 59.3884 8.306 59.7334 8.08878C60.0779 7.87152 60.5626 7.76507 61.1865 7.77008V7.70718C61.1865 7.26342 60.9535 7.04189 60.4866 7.04189C60.1543 7.04189 59.8613 7.12551 59.6087 7.29131L59.4563 6.79964C59.7694 6.60601 60.1557 6.50879 60.6118 6.50879C61.4921 6.50879 61.9336 6.97331 61.9336 7.90227V9.1428C61.9336 9.47935 61.95 9.74733 61.9824 9.94599ZM61.2047 8.78838V8.26887C60.3788 8.25458 59.9659 8.48107 59.9659 8.94771C59.9659 9.12349 60.0132 9.25501 60.1093 9.3429C60.2058 9.43079 60.3287 9.47439 60.4754 9.47439C60.6399 9.47439 60.7932 9.42221 60.9333 9.31858C61.074 9.21428 61.1607 9.08205 61.1925 8.91986C61.2005 8.88339 61.2047 8.8391 61.2047 8.78838Z" fill="white"/>
<path d="M66.2371 9.94648H65.5724L65.5377 9.40555H65.5166C65.3047 9.81715 64.9429 10.023 64.4348 10.023C64.0288 10.023 63.6909 9.86361 63.4232 9.54491C63.1551 9.22616 63.0215 8.81245 63.0215 8.30438C63.0215 7.75914 63.1663 7.31749 63.4579 6.98023C63.7405 6.6658 64.086 6.50858 64.498 6.50858C64.9504 6.50858 65.2668 6.66078 65.4468 6.96593H65.4613V5.03223H66.2108V9.03895C66.2108 9.36697 66.2192 9.66922 66.2371 9.94648ZM65.4613 8.52586V7.96421C65.4613 7.86704 65.4538 7.78844 65.4402 7.72839C65.398 7.5483 65.3075 7.39685 65.1697 7.27465C65.0301 7.15244 64.8622 7.09099 64.6687 7.09099C64.3893 7.09099 64.1704 7.20176 64.0096 7.42399C63.8502 7.64622 63.7696 7.9299 63.7696 8.27649C63.7696 8.60949 63.846 8.87962 63.9998 9.08756C64.1619 9.30908 64.3808 9.41985 64.6541 9.41985C64.9002 9.41985 65.0966 9.32765 65.2461 9.14259C65.3905 8.97178 65.4613 8.766 65.4613 8.52586Z" fill="white"/>
<path d="M72.6432 8.23386C72.6432 8.75191 72.4951 9.17641 72.1993 9.5094C71.889 9.85168 71.4789 10.0225 70.9651 10.0225C70.4715 10.0225 70.0778 9.8588 69.7834 9.53012C69.4905 9.20209 69.3438 8.78838 69.3438 8.28959C69.3438 7.76793 69.4947 7.33987 69.7975 7.00758C70.1003 6.67529 70.5076 6.50879 71.0219 6.50879C71.5154 6.50879 71.9134 6.67243 72.2134 7.00045C72.4993 7.31915 72.6432 7.73076 72.6432 8.23386ZM71.867 8.25814C71.867 7.94727 71.8 7.68074 71.6664 7.45851C71.5084 7.18983 71.2853 7.05548 70.9937 7.05548C70.6937 7.05548 70.465 7.18983 70.307 7.45851C70.1725 7.68074 70.1064 7.95158 70.1064 8.27173C70.1064 8.58256 70.1734 8.84908 70.307 9.07136C70.4692 9.34004 70.6951 9.47439 70.9867 9.47439C71.2726 9.47439 71.4976 9.33789 71.6589 9.06419C71.7971 8.83769 71.867 8.56896 71.867 8.25814Z" fill="white"/>
<path d="M76.6689 9.94619H75.9208V8.01675C75.9208 7.42224 75.6949 7.12497 75.2411 7.12497C75.019 7.12497 74.8394 7.20644 74.7007 7.37007C74.5624 7.53371 74.493 7.72665 74.493 7.94747V9.94544H73.743V7.54013C73.743 7.24431 73.7346 6.92345 73.7168 6.57616H74.3744L74.4091 7.1028H74.4302C74.5179 6.93916 74.6477 6.80411 74.8179 6.69621C75.0218 6.57044 75.2482 6.50684 75.4976 6.50684C75.8111 6.50684 76.0727 6.60832 76.2808 6.81194C76.54 7.06136 76.6689 7.43368 76.6689 7.92816V9.94619Z" fill="white"/>
<path d="M81.7099 7.13818H80.8849V8.77461C80.8849 9.19048 81.0316 9.39846 81.3218 9.39846C81.4563 9.39846 81.5674 9.38702 81.6555 9.36345L81.6747 9.93152C81.5266 9.98725 81.3326 10.0151 81.093 10.0151C80.7973 10.0151 80.5671 9.92509 80.4007 9.745C80.2334 9.56496 80.1504 9.26196 80.1504 8.83677V7.13818H79.6582V6.57724H80.1504V5.95981L80.8844 5.73828V6.57653H81.709V7.13818H81.7099Z" fill="white"/>
<path d="M85.6735 9.94648H84.924V8.03139C84.924 7.42755 84.698 7.12526 84.2457 7.12526C83.8983 7.12526 83.6612 7.30033 83.5313 7.65048C83.5088 7.72412 83.4962 7.81417 83.4962 7.91992V9.94578H82.748V5.03223H83.4962V7.0624H83.5107C83.7465 6.69294 84.0844 6.50858 84.5222 6.50858C84.8325 6.50858 85.0889 6.61006 85.2928 6.81373C85.5464 7.06741 85.6735 7.44471 85.6735 7.9435V9.94648Z" fill="white"/>
<path d="M89.7643 8.10289C89.7643 8.23723 89.7545 8.35015 89.7367 8.44235H87.4905C87.5003 8.77535 87.6076 9.02903 87.8158 9.20481C88.0056 9.36203 88.2508 9.44064 88.5508 9.44064C88.8831 9.44064 89.1864 9.38776 89.4592 9.28126L89.5764 9.80147C89.2571 9.94013 88.8812 10.0095 88.4458 10.0095C87.924 10.0095 87.5134 9.8558 87.2162 9.54854C86.9172 9.24123 86.7695 8.82893 86.7695 8.31157C86.7695 7.8035 86.9073 7.38046 87.1853 7.04316C87.4755 6.68302 87.8678 6.50293 88.3628 6.50293C88.8475 6.50293 89.2154 6.68302 89.4643 7.04316C89.665 7.329 89.7643 7.68271 89.7643 8.10289ZM89.0495 7.90925C89.0556 7.68702 89.0059 7.49549 88.9047 7.33401C88.7748 7.12603 88.5765 7.02173 88.3089 7.02173C88.0642 7.02173 87.865 7.12317 87.7126 7.32684C87.5884 7.48907 87.5148 7.68271 87.4905 7.90925H89.0495Z" fill="white"/>
</g>
</g>
<defs>
<clipPath id="clip0_1206_36406">
<rect width="102.438" height="30" fill="white"/>
</clipPath>
<clipPath id="clip1_1206_36406">
<rect width="102.438" height="29.9996" fill="white"/>
</clipPath>
</defs>
</svg>
