<svg width="41" height="41" viewBox="0 0 41 41" fill="none" xmlns="http://www.w3.org/2000/svg">
<rect x="0.126953" width="40.5747" height="40.5747" rx="20.2873" fill="#FAFAFA"/>
<path d="M26.1104 21.5733V25.7826H23.6704V21.8545C23.6704 20.8685 23.3174 20.1956 22.4339 20.1956C21.7599 20.1956 21.3579 20.6487 21.1815 21.0882C21.1177 21.2453 21.1006 21.4639 21.1006 21.6826V25.7826H18.6595C18.6595 25.7826 18.6925 19.131 18.6595 18.4422H21.1006V19.4817L21.0847 19.5056H21.1006V19.4817C21.4251 18.9807 22.0035 18.2691 23.3004 18.2691C24.9057 18.2691 26.1104 19.3189 26.1104 21.5733ZM16.1057 14.9023C15.2711 14.9023 14.7246 15.4511 14.7246 16.1707C14.7246 16.8766 15.2552 17.4402 16.0738 17.4402H16.0898C16.9414 17.4402 17.4709 16.8755 17.4709 16.1707C17.4549 15.4511 16.9414 14.9023 16.1057 14.9023ZM14.8692 25.7826H17.3103V18.4422H14.8692V25.7826Z" fill="#F89723"/>
<path d="M13.5855 11.1785C12.9816 11.1785 12.4024 11.4184 11.9754 11.8455C11.5483 12.2725 11.3084 12.8517 11.3084 13.4557V27.1186C11.3084 27.7225 11.5483 28.3017 11.9754 28.7288C12.4024 29.1558 12.9816 29.3957 13.5855 29.3957H27.2484C27.8524 29.3957 28.4316 29.1558 28.8586 28.7288C29.2857 28.3017 29.5256 27.7225 29.5256 27.1186V13.4557C29.5256 12.8517 29.2857 12.2725 28.8586 11.8455C28.4316 11.4184 27.8524 11.1785 27.2484 11.1785H13.5855ZM13.5855 8.90137H27.2484C28.4563 8.90137 29.6147 9.38119 30.4688 10.2353C31.3229 11.0894 31.8027 12.2478 31.8027 13.4557V27.1186C31.8027 28.3264 31.3229 29.4848 30.4688 30.3389C29.6147 31.193 28.4563 31.6729 27.2484 31.6729H13.5855C12.3777 31.6729 11.2193 31.193 10.3652 30.3389C9.51108 29.4848 9.03125 28.3264 9.03125 27.1186V13.4557C9.03125 12.2478 9.51108 11.0894 10.3652 10.2353C11.2193 9.38119 12.3777 8.90137 13.5855 8.90137Z" fill="#F89723"/>
</svg>
