<svg width="98" height="22" viewBox="0 0 98 22" fill="none" xmlns="http://www.w3.org/2000/svg">
<g clip-path="url(#clip0_4623_109320)">
<mask id="mask0_4623_109320" style="mask-type:luminance" maskUnits="userSpaceOnUse" x="-36" y="-18" width="170" height="57">
<path d="M133.223 -17.3438H-35.2485V38.3591H133.223V-17.3438Z" fill="white"/>
</mask>
<g mask="url(#mask0_4623_109320)">
<path d="M37.4439 17.6423C41.024 17.6423 43.6103 15.1566 43.6103 11.7824C43.6103 8.4082 41.0318 5.92246 37.4439 5.92246C33.8561 5.92246 31.2776 8.4082 31.2776 11.7824C31.2776 15.1566 33.8624 17.6423 37.4439 17.6423ZM37.4439 2.54688C43.4106 2.54688 47.7878 6.45443 47.7878 11.7824C47.7878 17.1104 43.4169 21.0165 37.4439 21.0165C31.471 21.0165 27.1001 17.109 27.1001 11.7824C27.1001 6.45582 31.4679 2.54688 37.4439 2.54688Z" fill="#3362F8"/>
<path d="M55.383 8.44594H67.3835C68.7671 8.44594 69.6906 7.62293 69.6906 6.38633V5.7722C69.6906 4.53699 68.7671 3.71259 67.3835 3.71259H55.383V8.44594ZM50.7656 20.6017V0H67.3819C71.536 0 74.3048 2.47181 74.3048 6.18022C74.3048 9.47644 71.9041 11.7839 68.2586 12.114C68.568 12.4209 68.8462 12.7518 69.09 13.1027L74.3048 20.6017H69.09L63.2278 12.1557H55.383V20.6017H50.7656Z" fill="#3362F8"/>
<path d="M78.2329 2.89844V20.6565H97.7273V17.4591H82.2123V13.3747H93.7495V10.1788H82.2123V6.09439H97.7273V2.89844H78.2329Z" fill="#3362F8"/>
<path d="M19.6608 0.210938L12.2746 8.86298H11.8955L4.5077 0.210938H0.247559V20.8126H4.98348V7.07909L7.16737 9.60104L9.7116 12.5714H14.446L17.0978 9.47014L17.7561 8.70144C17.7889 8.66384 17.8185 8.62624 17.8497 8.58864L19.1928 7.02618V20.8126H23.9287V0.210938H19.6608Z" fill="#3362F8"/>
</g>
</g>
<defs>
<clipPath id="clip0_4623_109320">
<rect width="97.481" height="21.0139" fill="white" transform="translate(0.247559)"/>
</clipPath>
</defs>
</svg>
