<svg width="42" height="41" viewBox="0 0 42 41" fill="none" xmlns="http://www.w3.org/2000/svg">
<rect x="0.701172" width="40.5747" height="40.5747" rx="20.2873" fill="white"/>
<path d="M30.1461 23.3524L25.4594 21.2514L25.4415 21.2434C25.1368 21.1121 24.8041 21.0592 24.4738 21.0897C24.1434 21.1201 23.826 21.2328 23.5504 21.4176C23.5118 21.4435 23.4746 21.4714 23.439 21.5012L21.2185 23.3922C19.9246 22.6906 18.588 21.3649 17.8853 20.0869L19.7823 17.8316C19.8128 17.7952 19.841 17.757 19.8669 17.7172C20.0468 17.4426 20.1561 17.1279 20.1849 16.8009C20.2137 16.4739 20.1612 16.1449 20.0321 15.8431C20.029 15.8373 20.0264 15.8313 20.0242 15.8251L17.9241 11.1304C17.7517 10.7378 17.4575 10.4111 17.0851 10.1987C16.7126 9.9863 16.2816 9.89945 15.8559 9.95102C14.4112 10.1408 13.0849 10.85 12.1248 11.9462C11.1647 13.0424 10.6364 14.4506 10.6387 15.9078C10.6387 24.0302 17.2463 30.6379 25.3688 30.6379C26.826 30.6401 28.2342 30.1119 29.3303 29.1518C30.4265 28.1917 31.1357 26.8654 31.3255 25.4206C31.3771 24.9949 31.2903 24.564 31.0778 24.1915C30.8654 23.819 30.5387 23.5248 30.1461 23.3524ZM25.3688 28.2492C22.0969 28.2453 18.9601 26.9437 16.6464 24.6301C14.3328 22.3165 13.0313 19.1797 13.0273 15.9078C13.0251 15.0832 13.305 14.2826 13.8207 13.6391C14.3363 12.9957 15.0566 12.548 15.8619 12.3705L17.735 16.5507L15.8281 18.8219C15.7972 18.8587 15.7687 18.8972 15.7425 18.9374C15.5545 19.2246 15.444 19.5555 15.4217 19.898C15.3994 20.2405 15.466 20.583 15.6151 20.8921C16.5526 22.811 18.4845 24.7299 20.4233 25.6694C20.7345 25.817 21.0787 25.8813 21.4222 25.856C21.7657 25.8307 22.0967 25.7167 22.383 25.5251C22.4214 25.4992 22.4583 25.4709 22.4934 25.4405L24.7258 23.5425L28.906 25.4147C28.7286 26.2199 28.2809 26.9402 27.6374 27.4559C26.9939 27.9715 26.1934 28.2515 25.3688 28.2492Z" fill="#F89723"/>
</svg>
