<svg width="103" height="30" viewBox="0 0 103 30" fill="none" xmlns="http://www.w3.org/2000/svg">
<g clip-path="url(#clip0_1206_36393)">
<path d="M98.6548 0H4.90619C2.83516 0 1.15625 1.67891 1.15625 3.74994V26.2496C1.15625 28.3207 2.83516 29.9996 4.90619 29.9996H98.6548C100.726 29.9996 102.405 28.3207 102.405 26.2496V3.74994C102.405 1.67891 100.726 0 98.6548 0Z" fill="black"/>
<path d="M98.6548 0.599991C99.4901 0.599991 100.292 0.931861 100.882 1.52259C101.473 2.11332 101.805 2.91453 101.805 3.74994V26.2496C101.805 27.0851 101.473 27.8862 100.882 28.477C100.292 29.0677 99.4901 29.3996 98.6548 29.3996H4.90619C4.07078 29.3996 3.26957 29.0677 2.67884 28.477C2.08811 27.8862 1.75624 27.0851 1.75624 26.2496V3.74994C1.75624 2.91453 2.08811 2.11332 2.67884 1.52259C3.26957 0.931861 4.07078 0.599991 4.90619 0.599991H98.6548ZM98.6548 0H4.90619C3.91165 0 2.95784 0.395082 2.25459 1.09834C1.55133 1.80159 1.15625 2.7554 1.15625 3.74994V26.2496C1.15625 27.2441 1.55133 28.198 2.25459 28.9012C2.95784 29.6045 3.91165 29.9996 4.90619 29.9996H98.6548C99.6495 29.9996 100.603 29.6045 101.306 28.9012C102.01 28.198 102.405 27.2441 102.405 26.2496V3.74994C102.405 2.7554 102.01 1.80159 101.306 1.09834C100.603 0.395082 99.6495 0 98.6548 0Z" fill="#A6A6A6"/>
<path d="M52.2605 16.3123C51.6306 16.3152 51.016 16.5047 50.4938 16.8567C49.9717 17.2088 49.5653 17.7076 49.3262 18.2903C49.0876 18.873 49.0267 19.5134 49.1514 20.1307C49.2761 20.748 49.5807 21.3146 50.027 21.7589C50.4732 22.2031 51.0413 22.5052 51.6591 22.627C52.2769 22.7487 52.9173 22.6848 53.499 22.4431C54.0802 22.2014 54.5771 21.7928 54.9268 21.269C55.2764 20.7452 55.463 20.1295 55.463 19.4997C55.4691 19.0782 55.3903 18.6597 55.2314 18.2693C55.0725 17.8788 54.8363 17.5243 54.5377 17.2269C54.2391 16.9295 53.8833 16.6953 53.4919 16.5381C53.101 16.381 52.6819 16.3042 52.2605 16.3123ZM52.2605 21.4347C51.8734 21.4618 51.4866 21.3717 51.1515 21.1763C50.8159 20.9807 50.5468 20.6889 50.3795 20.3386C50.2121 19.9882 50.154 19.5957 50.2126 19.2118C50.2717 18.828 50.4442 18.4708 50.709 18.1865C50.9734 17.9023 51.317 17.7041 51.6957 17.6178C52.074 17.5316 52.4701 17.5612 52.8315 17.7028C53.1929 17.8445 53.5036 18.0915 53.7225 18.412C53.9419 18.7325 54.0596 19.1115 54.0605 19.4997C54.0727 19.7457 54.0352 19.9917 53.9508 20.223C53.8665 20.4544 53.7366 20.6665 53.5688 20.8468C53.401 21.0272 53.1985 21.1721 52.974 21.273C52.7494 21.374 52.5066 21.429 52.2605 21.4347ZM45.2781 16.3123C44.6481 16.3137 44.0326 16.5019 43.5093 16.8531C42.9862 17.2042 42.5788 17.7026 42.3387 18.2851C42.0986 18.8677 42.0365 19.5083 42.1603 20.1262C42.2842 20.744 42.5884 21.3112 43.0344 21.7562C43.4805 22.2013 44.0484 22.5041 44.6666 22.6265C45.2847 22.7488 45.9252 22.6853 46.5071 22.4438C47.0891 22.2024 47.5865 21.7938 47.9364 21.2698C48.2865 20.7458 48.4731 20.1298 48.4731 19.4997C48.4792 19.0782 48.4004 18.6597 48.2415 18.2693C48.0826 17.8788 47.8466 17.5243 47.5478 17.2269C47.249 16.9295 46.8934 16.6953 46.5022 16.5381C46.111 16.381 45.6921 16.3042 45.2706 16.3123H45.2781ZM45.2781 21.4347C44.8906 21.4633 44.5035 21.3746 44.1671 21.1801C43.8308 20.9856 43.5607 20.6944 43.3922 20.3443C43.2236 19.9942 43.1644 19.6015 43.2222 19.2172C43.28 18.833 43.4521 18.4751 43.7162 18.19C43.9802 17.905 44.324 17.706 44.7027 17.6191C45.0814 17.5322 45.4775 17.5612 45.8394 17.7025C46.2013 17.8438 46.5123 18.0908 46.732 18.4114C46.9516 18.7319 47.0696 19.1112 47.0706 19.4997C47.0827 19.7457 47.0454 19.9917 46.9609 20.223C46.8765 20.4544 46.7465 20.6665 46.5787 20.8468C46.411 21.0272 46.2088 21.1721 45.9842 21.273C45.7595 21.374 45.5169 21.429 45.2706 21.4347H45.2781ZM36.9608 17.2948V18.6448H40.2007C40.1499 19.2806 39.8856 19.8806 39.4507 20.3472C39.1266 20.6774 38.7369 20.936 38.3068 21.1066C37.8766 21.277 37.4156 21.3556 36.9533 21.3372C35.9985 21.3372 35.0828 20.9579 34.4077 20.2828C33.7326 19.6077 33.3533 18.692 33.3533 17.7373C33.3533 16.7825 33.7326 15.8668 34.4077 15.1917C35.0828 14.5166 35.9985 14.1373 36.9533 14.1373C37.8666 14.1224 38.7486 14.4703 39.4057 15.1048L40.3582 14.1523C39.9146 13.7031 39.3853 13.3475 38.8017 13.1066C38.2181 12.8657 37.5921 12.7444 36.9608 12.7498C36.294 12.7239 35.6289 12.8328 35.0053 13.07C34.3816 13.3073 33.8123 13.668 33.3314 14.1306C32.8505 14.5931 32.4679 15.148 32.2066 15.7619C31.9453 16.3759 31.8105 17.0363 31.8105 17.7035C31.8105 18.3707 31.9453 19.0311 32.2066 19.6451C32.4679 20.259 32.8505 20.8139 33.3314 21.2764C33.8123 21.739 34.3816 22.0997 35.0053 22.337C35.6289 22.5742 36.294 22.6831 36.9608 22.6572C37.6027 22.6862 38.2434 22.5774 38.8398 22.338C39.4362 22.0987 39.9744 21.7344 40.4182 21.2697C41.204 20.4064 41.6235 19.2716 41.5882 18.1048C41.5906 17.8205 41.5655 17.5367 41.5132 17.2573L36.9608 17.2948ZM70.9428 18.3448C70.7473 17.7693 70.3812 17.2668 69.8937 16.9039C69.4062 16.5409 68.8203 16.3347 68.2128 16.3123C67.8027 16.3115 67.3967 16.3948 67.0199 16.5572C66.643 16.7195 66.3036 16.9574 66.0224 17.2562C65.7411 17.5549 65.5241 17.9081 65.3849 18.294C65.2457 18.6799 65.1871 19.0903 65.2129 19.4997C65.2039 19.9189 65.2794 20.3356 65.4346 20.725C65.5902 21.1143 65.8227 21.4684 66.118 21.7659C66.4138 22.0634 66.7658 22.2983 67.1544 22.4566C67.5425 22.6149 67.9587 22.6933 68.3778 22.6872C68.9023 22.69 69.4194 22.5627 69.8829 22.3166C70.3461 22.0706 70.7412 21.7134 71.0328 21.2772L69.9453 20.5272C69.7831 20.7978 69.5534 21.0216 69.2783 21.1767C69.0036 21.3319 68.6933 21.413 68.3778 21.4122C68.053 21.4246 67.7319 21.339 67.4563 21.1664C67.1806 20.9938 66.9636 20.7424 66.8328 20.4447L71.1003 18.6823L70.9428 18.3448ZM66.5928 19.4097C66.5778 19.1778 66.6088 18.9451 66.6847 18.7253C66.7606 18.5055 66.8797 18.3031 67.0344 18.1299C67.1895 17.9567 67.3775 17.8162 67.5875 17.7166C67.798 17.6169 68.0258 17.5602 68.2578 17.5498C68.4997 17.5338 68.7411 17.5893 68.9515 17.7093C69.1625 17.8293 69.3331 18.0085 69.4428 18.2248L66.5928 19.4097ZM63.1279 22.4997H64.5304V13.1248H63.1279V22.4997ZM60.8329 17.0248H60.7804C60.569 16.7884 60.3103 16.5994 60.0206 16.4702C59.7309 16.341 59.4173 16.2744 59.1004 16.2748C58.2811 16.3145 57.5081 16.6681 56.9419 17.2622C56.3761 17.8563 56.0602 18.6454 56.0602 19.466C56.0602 20.2865 56.3761 21.0757 56.9419 21.6697C57.5081 22.2639 58.2811 22.6175 59.1004 22.6572C59.4182 22.6625 59.7332 22.5981 60.0239 22.4686C60.314 22.339 60.5723 22.1474 60.7804 21.9072H60.8254V22.3647C60.8254 23.5872 60.1729 24.2397 59.1229 24.2397C58.7733 24.2315 58.4339 24.1194 58.148 23.9177C57.862 23.716 57.6431 23.4339 57.518 23.1072L56.2955 23.6172C56.5256 24.1769 56.9175 24.6552 57.4214 24.9906C57.9253 25.326 58.5178 25.5033 59.1229 25.4997C60.7654 25.4997 62.1229 24.5322 62.1229 22.1772V16.4998H60.8329V17.0248ZM59.2279 21.4347C58.7442 21.3921 58.2937 21.1697 57.9661 20.8116C57.638 20.4534 57.4561 19.9854 57.4561 19.4997C57.4561 19.0141 57.638 18.546 57.9661 18.1879C58.2937 17.8297 58.7442 17.6074 59.2279 17.5648C59.4679 17.5771 59.7028 17.6372 59.9189 17.7418C60.1354 17.8463 60.3285 17.9931 60.487 18.1733C60.6459 18.3537 60.7668 18.564 60.8428 18.7917C60.9192 19.0195 60.9487 19.2603 60.9304 19.4997C60.951 19.7403 60.9224 19.9824 60.8465 20.2116C60.7706 20.4407 60.6492 20.6522 60.4893 20.833C60.3295 21.0139 60.1345 21.1605 59.9165 21.2639C59.6986 21.3673 59.4618 21.4254 59.2204 21.4347H59.2279ZM77.5127 13.1248H74.1602V22.4997H75.5627V18.9448H77.5202C77.92 18.9734 78.3213 18.9195 78.6991 18.7863C79.0773 18.6531 79.4237 18.4434 79.7167 18.1703C80.0101 17.8974 80.244 17.5668 80.4043 17.1994C80.5642 16.8319 80.6467 16.4355 80.6467 16.0348C80.6467 15.634 80.5642 15.2376 80.4043 14.8702C80.244 14.5028 80.0101 14.1722 79.7167 13.8992C79.4237 13.6262 79.0773 13.4165 78.6991 13.2833C78.3213 13.1501 77.92 13.0961 77.5202 13.1248H77.5127ZM77.5127 17.6248H75.5552V14.4298H77.5427C77.9692 14.4298 78.3784 14.5993 78.6803 14.901C78.9817 15.2027 79.1514 15.6119 79.1514 16.0385C79.1514 16.4652 78.9817 16.8744 78.6803 17.176C78.3784 17.4778 77.9692 17.6473 77.5427 17.6473L77.5127 17.6248ZM86.16 16.2748C85.6496 16.2443 85.141 16.3636 84.6976 16.6181C84.2537 16.8725 83.8941 17.2511 83.6626 17.7073L84.9076 18.2248C85.0304 17.9985 85.216 17.8128 85.4424 17.6904C85.6688 17.5678 85.9261 17.5138 86.1825 17.5348C86.3607 17.514 86.5411 17.5288 86.7132 17.5785C86.8857 17.6282 87.046 17.7116 87.1856 17.824C87.3253 17.9364 87.4411 18.0755 87.5264 18.2332C87.6117 18.3908 87.6647 18.5639 87.6825 18.7423V18.8398C87.2321 18.6013 86.7296 18.4776 86.22 18.4798C84.8776 18.4798 83.5201 19.2298 83.5201 20.5872C83.5332 20.8767 83.6045 21.1605 83.7291 21.422C83.8543 21.6835 84.0301 21.9172 84.2471 22.1095C84.4637 22.3018 84.7168 22.4487 84.9915 22.5415C85.2657 22.6342 85.5563 22.671 85.845 22.6497C86.198 22.6751 86.5519 22.6048 86.8683 22.4465C87.1852 22.2882 87.4533 22.0475 87.645 21.7497H87.69V22.4997H89.04V18.8923C89.04 17.2498 87.795 16.2973 86.1975 16.2973L86.16 16.2748ZM85.9875 21.4122C85.53 21.4122 84.8926 21.1797 84.8926 20.6172C84.8926 19.8672 85.6875 19.6197 86.3925 19.6197C86.8378 19.6087 87.2785 19.7175 87.6675 19.9347C87.6206 20.3408 87.4285 20.7162 87.1266 20.9918C86.8247 21.2675 86.4338 21.4247 86.025 21.4347L85.9875 21.4122ZM93.9599 16.4998L92.3549 20.5647H92.31L90.645 16.4998H89.145L91.6425 22.1847L90.2175 25.3422H91.68L95.5199 16.4998H93.9599ZM81.3526 22.4997H82.7551V13.1248H81.3526V22.4997Z" fill="white"/>
<path d="M36.6756 7.72696C36.6883 8.00202 36.645 8.27684 36.5483 8.5347C36.4517 8.79256 36.3036 9.02805 36.1131 9.22694C35.9004 9.44786 35.6435 9.62153 35.3592 9.73651C35.0749 9.85154 34.7696 9.90535 34.4631 9.89443C33.9981 9.89077 33.5445 9.75001 33.1592 9.48967C32.7738 9.22938 32.4739 8.86113 32.2969 8.43111C32.1199 8.00108 32.0738 7.5284 32.1643 7.07227C32.2548 6.61614 32.4779 6.19689 32.8057 5.86699C33.021 5.64706 33.2793 5.47371 33.5644 5.35761C33.8495 5.2415 34.1554 5.18516 34.4631 5.192C34.7802 5.19092 35.0941 5.25476 35.3856 5.3795C35.657 5.48895 35.8986 5.66117 36.0906 5.88199L35.6931 6.27948C35.5434 6.10141 35.3544 5.96065 35.1409 5.86821C34.9274 5.77577 34.6954 5.73429 34.4631 5.74699C34.2289 5.74582 33.9968 5.79199 33.7808 5.88274C33.5648 5.97344 33.3693 6.10685 33.2061 6.27494C33.043 6.44303 32.9154 6.64234 32.8311 6.86091C32.7468 7.07949 32.7075 7.31283 32.7157 7.54697C32.7107 7.89655 32.8095 8.23977 32.9994 8.53334C33.1893 8.82687 33.4619 9.05758 33.7828 9.19638C34.1037 9.33517 34.4585 9.37581 34.8025 9.31319C35.1465 9.25052 35.4642 9.08744 35.7156 8.84445C35.9464 8.59432 36.0795 8.26958 36.0906 7.92946H34.4631V7.38947H36.6456C36.6656 7.50084 36.6756 7.61381 36.6756 7.72696ZM40.1105 5.85199H38.0856V7.27697H39.9306V7.81696H38.0856V9.24194H40.1105V9.79693H37.4856V5.297H40.1105V5.85199ZM42.5705 9.79693H41.993V5.85199H40.733V5.297H43.8605V5.85199H42.5705V9.79693ZM46.0655 9.79693V5.297H46.643V9.79693H46.0655ZM49.2078 9.79693H48.6303V5.85199H47.3704V5.297H50.4603V5.85199H49.2078V9.79693ZM56.3177 9.21194C55.8794 9.64792 55.286 9.8927 54.6677 9.8927C54.0495 9.8927 53.4565 9.64792 53.0178 9.21194C52.5917 8.76082 52.354 8.16378 52.354 7.54321C52.354 6.92265 52.5917 6.32556 53.0178 5.87449C53.2339 5.65681 53.4912 5.48403 53.7743 5.36614C54.0574 5.2482 54.3612 5.1875 54.6677 5.1875C54.9748 5.1875 55.278 5.2482 55.5616 5.36614C55.8448 5.48403 56.1016 5.65681 56.3177 5.87449C56.7457 6.32472 56.9843 6.92208 56.9843 7.54321C56.9843 8.1643 56.7457 8.76171 56.3177 9.21194ZM53.4453 8.83695C53.7701 9.16028 54.2098 9.34183 54.6677 9.34183C55.1262 9.34183 55.5654 9.16028 55.8902 8.83695C56.2108 8.4837 56.388 8.02386 56.388 7.54697C56.388 7.07007 56.2108 6.61023 55.8902 6.25698C55.5654 5.93365 55.1262 5.7521 54.6677 5.7521C54.2098 5.7521 53.7701 5.93365 53.4453 6.25698C53.1251 6.61023 52.9475 7.07007 52.9475 7.54697C52.9475 8.02386 53.1251 8.4837 53.4453 8.83695ZM57.7952 9.79693V5.297H58.5002L60.6901 8.79945V5.297H61.2676V9.79693H60.6676L58.3802 6.12949V9.79693H57.7952Z" fill="white"/>
<path fill-rule="evenodd" clip-rule="evenodd" d="M54.6666 5.2623C54.3699 5.2623 54.076 5.32104 53.8017 5.43517C53.528 5.54913 53.2796 5.71609 53.0705 5.92646C52.658 6.36357 52.4279 6.9419 52.4279 7.54302C52.4279 8.14404 52.658 8.72233 53.0705 9.15939C53.4947 9.58088 54.0685 9.8175 54.6666 9.8175C55.2647 9.8175 55.8389 9.58088 56.2631 9.15929C56.677 8.72308 56.9081 8.14451 56.9081 7.54302C56.9081 6.94143 56.677 6.36277 56.2626 5.92656C56.0541 5.71614 55.8052 5.54917 55.5314 5.43517C55.2572 5.32104 54.9633 5.2623 54.6666 5.2623ZM53.7441 5.29666C54.0366 5.17498 54.3502 5.1123 54.6666 5.1123C54.9834 5.1123 55.2966 5.17498 55.5891 5.29666C55.8816 5.41839 56.1469 5.59675 56.37 5.82147L56.3709 5.82259C56.812 6.28679 57.0581 6.90267 57.0581 7.54302C57.0581 8.18337 56.812 8.7992 56.3709 9.2634L56.3695 9.26495C55.9172 9.71489 55.305 9.9675 54.6666 9.9675C54.0286 9.9675 53.4164 9.71489 52.9636 9.2649L52.9622 9.26326C52.523 8.79822 52.2779 8.18271 52.2779 7.54302C52.2779 6.90328 52.523 6.28782 52.9622 5.82278L52.9636 5.82142C53.1863 5.5967 53.4521 5.41839 53.7441 5.29666ZM34.4603 5.26676C34.1628 5.26015 33.8671 5.31461 33.5915 5.42688C33.3159 5.5391 33.0663 5.70667 32.8581 5.91925L32.8577 5.91967C32.5404 6.23907 32.3243 6.64505 32.2367 7.0867C32.1491 7.52835 32.1938 7.98603 32.3651 8.40237C32.5365 8.81875 32.8269 9.17532 33.2 9.42737C33.5731 9.67936 34.0123 9.81572 34.4625 9.81923H34.4646C34.7606 9.82978 35.0554 9.77784 35.3299 9.6668C35.6044 9.55575 35.8525 9.38813 36.0578 9.17481C36.2413 8.98328 36.3839 8.75645 36.477 8.50816C36.5701 8.25982 36.6118 7.99517 36.5995 7.73023L36.6744 7.72677L36.5994 7.72672C36.5994 7.63888 36.5932 7.55117 36.5806 7.46427H34.537V7.85426H36.1669L36.1644 7.9317C36.1527 8.28982 36.0125 8.63177 35.7695 8.89511L35.7666 8.89825C35.5046 9.15156 35.1733 9.32148 34.8148 9.38677C34.4563 9.45207 34.0864 9.40969 33.7519 9.26499C33.4174 9.12034 33.1332 8.87983 32.9353 8.57388C32.7376 8.2684 32.6347 7.91131 32.6395 7.54752C32.6313 7.30391 32.6723 7.06115 32.76 6.83372C32.8479 6.60572 32.981 6.39783 33.1512 6.22248C33.3214 6.04717 33.5253 5.908 33.7506 5.81336C33.9752 5.71905 34.2165 5.67091 34.4601 5.6718C34.7032 5.65886 34.946 5.70245 35.1695 5.7992C35.3687 5.8854 35.5476 6.01173 35.6952 6.16993L35.9859 5.87917C35.8099 5.69209 35.5952 5.54514 35.3564 5.44886L35.3549 5.44825C35.0728 5.32755 34.769 5.26577 34.4622 5.2668L34.4603 5.26676ZM36.7494 7.72503C36.7624 8.0097 36.7175 8.29404 36.6174 8.56085C36.5172 8.82822 36.3636 9.07239 36.1661 9.27863C35.9461 9.50715 35.6803 9.68686 35.3862 9.80583C35.0925 9.9247 34.777 9.98034 34.4603 9.96923C33.9809 9.96525 33.5133 9.82003 33.116 9.55163C32.7185 9.28309 32.409 8.90317 32.2264 8.45946C32.0438 8.01579 31.9962 7.52811 32.0896 7.05749C32.1829 6.58697 32.413 6.15446 32.7511 5.81411C32.9736 5.58695 33.2404 5.40789 33.5349 5.28794C33.8292 5.16809 34.145 5.10987 34.4627 5.1168C34.7894 5.11582 35.1128 5.18159 35.4132 5.31002C35.6953 5.42393 35.9464 5.60298 36.146 5.83258L36.1919 5.88536L35.6871 6.39014L35.6345 6.32752C35.4923 6.1584 35.3127 6.02462 35.1099 5.93682C34.9071 5.84903 34.6867 5.80961 34.466 5.82165L34.4616 5.82193C34.2374 5.82081 34.0154 5.86487 33.8086 5.95168C33.602 6.03849 33.4149 6.16613 33.2588 6.32696C33.1027 6.48783 32.9806 6.67852 32.8999 6.88767C32.8193 7.09687 32.7817 7.32013 32.7894 7.54419L32.7895 7.5478C32.7849 7.88258 32.8793 8.21126 33.0612 8.49236C33.243 8.77347 33.5041 8.99443 33.8114 9.12732C34.1188 9.26026 34.4585 9.29916 34.7879 9.23921C35.1166 9.17935 35.4203 9.02368 35.6608 8.7918C35.8609 8.57425 35.9831 8.29727 36.0097 8.00426H34.387V7.31427H36.7072L36.7182 7.37601C36.7389 7.49122 36.7493 7.60799 36.7494 7.72503ZM37.4094 5.2218H40.1844V5.92679H38.1594V7.20177H40.0044V7.89176H38.1594V9.16674H40.1844V9.87173H37.4094V5.2218ZM37.5594 5.3718V9.72174H40.0344V9.31674H38.0094V7.74177H39.8544V7.35177H38.0094V5.7768H40.0344V5.3718H37.5594ZM40.6569 5.2218H43.9343V5.92679H42.6444V9.87173H41.9169V5.92679H40.6569V5.2218ZM40.8069 5.3718V5.7768H42.0669V9.72174H42.4944V5.7768H43.7843V5.3718H40.8069ZM45.9893 5.2218H46.7168V9.87173H45.9893V5.2218ZM46.1393 5.3718V9.72174H46.5668V5.3718H46.1393ZM47.2943 5.2218H50.5341V5.92679H49.2817V9.87173H48.5542V5.92679H47.2943V5.2218ZM47.4443 5.3718V5.7768H48.7042V9.72174H49.1317V5.7768H50.3841V5.3718H47.4443ZM57.719 5.2218H58.5407L60.614 8.53783V5.2218H61.3415V9.87173H60.6248L58.454 6.39122V9.87173H57.719V5.2218ZM57.869 5.3718V9.72174H58.304V5.86731L60.7082 9.72174H61.1915V5.3718H60.764V9.06067L58.4573 5.3718H57.869ZM53.3911 6.20363C53.73 5.86632 54.1885 5.67691 54.6666 5.67691C55.1447 5.67691 55.6031 5.86632 55.942 6.20363L55.9448 6.2063C56.2776 6.57333 56.4619 7.05121 56.4619 7.54677C56.4619 8.04228 56.2776 8.52011 55.9448 8.88714L55.942 8.88995C55.6036 9.22731 55.1447 9.41663 54.6666 9.41663C54.1885 9.41663 53.73 9.22721 53.3911 8.8899L53.4441 8.83675L53.3888 8.88714C53.0555 8.52011 52.8713 8.04228 52.8713 7.54677C52.8713 7.05121 53.0555 6.57342 53.3888 6.2064L53.3911 6.20363ZM53.4985 8.78495C53.8088 9.09343 54.2288 9.26663 54.6666 9.26663C55.1044 9.26663 55.5244 9.09343 55.8347 8.78495C56.1422 8.44568 56.3119 8.0044 56.3119 7.54677C56.3119 7.08909 56.1422 6.64781 55.8347 6.30858C55.5244 6.00006 55.1044 5.8269 54.6666 5.8269C54.2288 5.8269 53.8088 6.00006 53.4985 6.30858C53.1914 6.64781 53.0213 7.08909 53.0213 7.54677C53.0213 8.0044 53.1914 8.44568 53.4985 8.78495Z" fill="white"/>
<path d="M8.98635 5.65504C8.7419 5.94833 8.61853 6.32384 8.64136 6.70502V23.2948C8.61853 23.6759 8.7419 24.0514 8.98635 24.3448L9.03885 24.3973L18.3312 15.1124V14.8949L9.03885 5.60254L8.98635 5.65504Z" fill="url(#paint0_linear_1206_36393)"/>
<path d="M21.407 18.2099L18.332 15.1125V14.895L21.407 11.79L21.4745 11.8275L25.1569 13.92C26.2069 14.5125 26.2069 15.4875 25.1569 16.0875L21.4895 18.1724L21.407 18.2099Z" fill="url(#paint1_linear_1206_36393)"/>
<path d="M21.4961 18.165L18.3312 15L8.98633 24.3449C9.20031 24.533 9.47335 24.6405 9.75816 24.6487C10.043 24.6569 10.3218 24.5654 10.5463 24.3899L21.5036 18.165" fill="url(#paint2_linear_1206_36393)"/>
<path d="M21.4958 11.8348L10.5385 5.60993C10.314 5.43444 10.0352 5.34289 9.75039 5.35109C9.46554 5.3593 9.19254 5.46678 8.97852 5.65493L18.3309 14.9998L21.4958 11.8348Z" fill="url(#paint3_linear_1206_36393)"/>
<path opacity="0.2" d="M21.4061 18.0977L10.5388 24.2851C10.3222 24.4469 10.0591 24.5344 9.78882 24.5344C9.51845 24.5344 9.25534 24.4469 9.03883 24.2851L8.98633 24.3376L9.03883 24.3901C9.25482 24.5531 9.51812 24.6413 9.78882 24.6413C10.0595 24.6413 10.3228 24.5531 10.5388 24.3901L21.4961 18.1652L21.4061 18.0977Z" fill="black"/>
<path opacity="0.12" d="M8.98635 24.2399C8.7419 23.9466 8.61853 23.5711 8.64136 23.1899V23.3024C8.61853 23.6836 8.7419 24.0591 8.98635 24.3524L9.03885 24.2999L8.98635 24.2399ZM25.1561 15.975L21.4062 18.0975L21.4737 18.165L25.1561 16.08C25.365 15.9818 25.5444 15.8303 25.6761 15.6407C25.8078 15.4511 25.8871 15.2301 25.9061 15C25.8639 15.2091 25.7744 15.4056 25.6444 15.5746C25.5144 15.7437 25.3473 15.8806 25.1561 15.975Z" fill="black"/>
<path opacity="0.25" d="M10.5397 5.71483L25.157 14.0247C25.3482 14.1191 25.5153 14.256 25.6453 14.4251C25.7753 14.5941 25.8648 14.7906 25.907 14.9997C25.888 14.7696 25.8087 14.5486 25.677 14.359C25.5453 14.1694 25.366 14.0179 25.157 13.9197L10.5397 5.60983C9.48975 5.01734 8.63477 5.51233 8.63477 6.71231V6.82481C8.65727 5.61733 9.49725 5.12233 10.5397 5.71483Z" fill="white"/>
</g>
<defs>
<linearGradient id="paint0_linear_1206_36393" x1="17.5062" y1="6.53253" x2="4.92141" y2="19.1173" gradientUnits="userSpaceOnUse">
<stop stop-color="#00A0FF"/>
<stop offset="0.01" stop-color="#00A1FF"/>
<stop offset="0.26" stop-color="#00BEFF"/>
<stop offset="0.51" stop-color="#00D2FF"/>
<stop offset="0.76" stop-color="#00DFFF"/>
<stop offset="1" stop-color="#00E3FF"/>
</linearGradient>
<linearGradient id="paint1_linear_1206_36393" x1="26.5294" y1="15" x2="8.38718" y2="15" gradientUnits="userSpaceOnUse">
<stop stop-color="#FFE000"/>
<stop offset="0.41" stop-color="#FFBD00"/>
<stop offset="0.78" stop-color="#FFA500"/>
<stop offset="1" stop-color="#FF9C00"/>
</linearGradient>
<linearGradient id="paint2_linear_1206_36393" x1="19.7787" y1="16.725" x2="2.7089" y2="33.7872" gradientUnits="userSpaceOnUse">
<stop stop-color="#FF3A44"/>
<stop offset="1" stop-color="#C31162"/>
</linearGradient>
<linearGradient id="paint3_linear_1206_36393" x1="6.63105" y1="0.135" x2="14.2509" y2="7.7549" gradientUnits="userSpaceOnUse">
<stop stop-color="#32A071"/>
<stop offset="0.07" stop-color="#2DA771"/>
<stop offset="0.48" stop-color="#15CF74"/>
<stop offset="0.8" stop-color="#06E775"/>
<stop offset="1" stop-color="#00F076"/>
</linearGradient>
<clipPath id="clip0_1206_36393">
<rect width="102.438" height="29.9996" fill="white" transform="translate(0.5625)"/>
</clipPath>
</defs>
</svg>
