<svg width="23" height="24" viewBox="0 0 23 24" fill="none" xmlns="http://www.w3.org/2000/svg">
<path d="M17.1104 13.5733V17.7826H14.6704V13.8545C14.6704 12.8685 14.3174 12.1956 13.4339 12.1956C12.7599 12.1956 12.3579 12.6487 12.1815 13.0882C12.1177 13.2453 12.1006 13.4639 12.1006 13.6826V17.7826H9.65952C9.65952 17.7826 9.69254 11.131 9.65952 10.4422H12.1006V11.4817L12.0847 11.5056H12.1006V11.4817C12.4251 10.9807 13.0035 10.2691 14.3004 10.2691C15.9057 10.2691 17.1104 11.3189 17.1104 13.5733ZM7.1057 6.90234C6.27113 6.90234 5.72461 7.45114 5.72461 8.17072C5.72461 8.87663 6.25519 9.44023 7.07382 9.44023H7.08976C7.94141 9.44023 8.47085 8.87549 8.47085 8.17072C8.45491 7.45114 7.94141 6.90234 7.1057 6.90234ZM5.86921 17.7826H8.31031V10.4422H5.86921V17.7826Z" fill="#F89723"/>
<path d="M4.58555 3.17852C3.98161 3.17852 3.40241 3.41843 2.97536 3.84548C2.54831 4.27253 2.3084 4.85173 2.3084 5.45567V19.1186C2.3084 19.7225 2.54831 20.3017 2.97536 20.7288C3.40241 21.1558 3.98161 21.3957 4.58555 21.3957H18.2484C18.8524 21.3957 19.4316 21.1558 19.8586 20.7288C20.2857 20.3017 20.5256 19.7225 20.5256 19.1186V5.45567C20.5256 4.85173 20.2857 4.27253 19.8586 3.84548C19.4316 3.41843 18.8524 3.17852 18.2484 3.17852H4.58555ZM4.58555 0.901367H18.2484C19.4563 0.901367 20.6147 1.38119 21.4688 2.23529C22.3229 3.08939 22.8027 4.24779 22.8027 5.45567V19.1186C22.8027 20.3264 22.3229 21.4848 21.4688 22.3389C20.6147 23.193 19.4563 23.6729 18.2484 23.6729H4.58555C3.37767 23.6729 2.21927 23.193 1.36517 22.3389C0.511077 21.4848 0.03125 20.3264 0.03125 19.1186V5.45567C0.03125 4.24779 0.511077 3.08939 1.36517 2.23529C2.21927 1.38119 3.37767 0.901367 4.58555 0.901367Z" fill="#F89723"/>
</svg>
