<svg width="22" height="22" viewBox="0 0 22 22" fill="none" xmlns="http://www.w3.org/2000/svg">
<path d="M20.1461 14.3524L15.4594 12.2514L15.4415 12.2434C15.1368 12.1121 14.8041 12.0592 14.4738 12.0897C14.1434 12.1201 13.826 12.2328 13.5504 12.4176C13.5118 12.4435 13.4746 12.4714 13.439 12.5012L11.2185 14.3922C9.92462 13.6906 8.58797 12.3649 7.8853 11.0869L9.7823 8.83163C9.8128 8.79523 9.84105 8.75701 9.8669 8.71717C10.0468 8.44263 10.1561 8.12785 10.1849 7.80087C10.2137 7.47389 10.1612 7.14485 10.0321 6.84306C10.029 6.83728 10.0264 6.8313 10.0242 6.82515L7.92411 2.13042C7.75174 1.73781 7.45754 1.41112 7.08505 1.19871C6.71257 0.986299 6.2816 0.89945 5.85593 0.951016C4.41115 1.14081 3.08486 1.85002 2.12477 2.9462C1.16467 4.04239 0.636421 5.45057 0.638679 6.90776C0.638679 15.0302 7.24633 21.6379 15.3688 21.6379C16.826 21.6401 18.2342 21.1119 19.3303 20.1518C20.4265 19.1917 21.1357 17.8654 21.3255 16.4206C21.3771 15.9949 21.2903 15.564 21.0778 15.1915C20.8654 14.819 20.5387 14.5248 20.1461 14.3524ZM15.3688 19.2492C12.0969 19.2453 8.96005 17.9437 6.64644 15.6301C4.33282 13.3165 3.0313 10.1797 3.02735 6.90776C3.02507 6.08316 3.30501 5.28261 3.82066 4.63914C4.33631 3.99566 5.05662 3.548 5.8619 3.37054L7.73501 7.55071L5.82806 9.82193C5.79724 9.85866 5.76865 9.89722 5.74247 9.93738C5.55451 10.2246 5.444 10.5555 5.42168 10.898C5.39936 11.2405 5.46598 11.583 5.61507 11.8921C6.55262 13.811 8.48446 15.7299 10.4233 16.6694C10.7345 16.817 11.0787 16.8813 11.4222 16.856C11.7657 16.8307 12.0967 16.7167 12.383 16.5251C12.4214 16.4992 12.4583 16.4709 12.4934 16.4405L14.7258 14.5425L18.906 16.4147C18.7286 17.2199 18.2809 17.9402 17.6374 18.4559C16.9939 18.9715 16.1934 19.2515 15.3688 19.2492Z" fill="#F89723"/>
</svg>
